<?xml version="1.0" standalone="no"?>
<!DOCTYPE svg PUBLIC "-//W3C//DTD SVG 20010904//EN"
 "http://www.w3.org/TR/2001/REC-SVG-20010904/DTD/svg10.dtd">
<svg version="1.0" xmlns="http://www.w3.org/2000/svg"
 width="650.000000pt" height="519.000000pt" viewBox="0 0 650.000000 519.000000"
 preserveAspectRatio="xMidYMid meet">

<g transform="translate(0.000000,519.000000) scale(0.100000,-0.100000)"
fill="#000000" stroke="none">
<path d="M1250 4769 c0 -204 3 -308 10 -304 6 4 10 118 10 311 0 196 -4 304
-10 304 -6 0 -10 -110 -10 -311z"/>
<path d="M1280 4772 l0 -308 -28 -16 c-16 -9 -49 -37 -73 -62 -41 -41 -56 -65
-85 -144 l-9 -23 -443 1 c-437 0 -442 0 -442 -20 0 -20 6 -20 328 -20 180 0
378 -3 440 -7 l112 -6 0 -42 c0 -40 -1 -41 -30 -37 -25 3 -31 0 -39 -21 -7
-18 -15 -24 -28 -21 -35 9 -61 -11 -122 -93 -94 -126 -224 -364 -282 -513
l-17 -45 -183 -5 -184 -6 178 -2 c164 -2 178 -3 175 -19 -3 -16 -22 -19 -178
-23 l-175 -6 169 -2 168 -2 -4 -25 c-4 -16 -1 -25 8 -25 30 0 157 152 170 205
4 15 36 57 72 93 l66 67 4 -32 c5 -46 24 -41 20 4 -2 32 0 38 22 44 14 4 44 7
68 8 l43 1 -3 -37 c-2 -31 -7 -39 -26 -41 -21 -3 -24 -8 -20 -43 2 -27 0 -39
-9 -39 -9 0 -13 14 -13 41 0 56 -24 46 -28 -12 -2 -36 -9 -50 -37 -74 -18 -16
-52 -67 -75 -112 -22 -46 -44 -83 -49 -83 -5 0 -11 -9 -14 -20 -3 -12 -14 -20
-26 -20 -14 0 -21 -6 -21 -19 0 -11 -4 -23 -10 -26 -6 -4 -10 5 -10 19 0 21
-5 26 -25 26 -33 0 -81 -24 -88 -45 -5 -12 3 -15 50 -15 53 0 55 -1 40 -17
-15 -18 -88 -163 -100 -200 -3 -10 -16 -47 -29 -83 l-24 -65 -142 -3 c-181 -3
-192 -22 -14 -22 71 0 131 -3 135 -6 3 -3 1 -19 -5 -35 l-10 -29 -124 0 c-76
0 -124 -4 -124 -10 0 -6 47 -10 121 -10 106 0 120 -2 115 -16 -3 -9 -6 -16 -6
-17 0 -1 -52 0 -115 1 -78 3 -115 0 -115 -7 0 -7 39 -11 115 -11 113 0 115 -1
105 -20 -10 -18 -21 -20 -115 -20 -63 0 -105 -4 -105 -10 0 -6 42 -10 106 -10
93 0 105 -2 100 -16 -3 -9 -6 -19 -6 -22 0 -4 -45 -5 -100 -4 -86 3 -100 2
-100 -12 0 -14 15 -16 95 -16 52 0 95 -4 95 -9 0 -32 -11 -36 -100 -33 -59 2
-90 0 -90 -7 0 -7 33 -11 90 -11 50 0 90 -4 90 -8 0 -5 -6 -16 -12 -25 -10
-12 -33 -17 -93 -20 l-80 -3 83 -2 c45 -1 82 -6 82 -11 0 -35 -13 -41 -86 -41
-43 0 -74 -4 -74 -10 0 -6 32 -10 75 -10 68 0 75 -2 67 -17 -8 -13 -23 -16
-76 -14 -54 2 -66 0 -66 -13 0 -13 13 -16 66 -16 56 0 65 -2 60 -16 -3 -9 -6
-18 -6 -20 0 -2 -27 -4 -60 -4 -33 0 -60 -4 -60 -10 0 -5 25 -10 55 -10 l56 0
-7 -37 c-11 -61 -18 -68 -63 -64 -24 1 -41 -2 -41 -8 0 -6 18 -11 41 -11 36 0
40 -2 37 -22 -2 -19 -10 -24 -40 -26 -45 -4 -51 -22 -7 -22 24 0 30 -4 27 -17
-2 -11 -14 -19 -31 -21 -31 -4 -38 -32 -7 -32 11 0 20 -7 20 -15 0 -8 -9 -15
-20 -15 -24 0 -26 -18 -4 -34 16 -12 11 -66 -7 -66 -10 0 -12 -53 -3 -63 7 -7
5 -492 -2 -510 -3 -8 -21 -11 -54 -9 -50 4 -50 4 -50 -27 0 -31 1 -31 50 -31
51 0 58 -7 44 -44 -4 -11 -19 -16 -50 -16 -37 0 -44 -3 -44 -20 0 -17 7 -20
40 -20 33 0 40 -3 40 -19 0 -16 -5 -18 -40 -14 -36 5 -40 3 -40 -16 0 -17 6
-21 33 -21 31 0 33 -2 29 -28 -3 -25 -7 -28 -33 -24 -26 4 -29 1 -29 -22 0
-21 5 -26 28 -27 l27 -1 -30 -8 -30 -8 28 -1 c31 -1 33 -13 12 -55 -12 -23
-15 -75 -13 -295 l3 -266 2 248 c2 136 7 247 12 247 4 0 16 -9 26 -20 10 -11
25 -22 34 -25 14 -4 16 -29 13 -225 l-3 -220 288 0 289 0 39 -82 40 -83 529
-3 c417 -2 531 0 538 10 4 7 8 61 8 121 l0 107 29 0 c17 0 33 5 36 10 9 14 68
13 83 -2 7 -7 12 -39 12 -75 0 -45 5 -68 17 -83 10 -11 21 -20 25 -20 4 0 9
33 11 73 l3 72 2 -87 c2 -71 5 -88 17 -88 8 0 15 -9 15 -20 0 -11 5 -20 10
-20 6 0 10 38 10 95 0 57 4 95 10 95 6 0 10 -38 10 -95 0 -57 4 -95 10 -95 6
0 10 37 10 90 0 53 4 90 10 90 6 0 10 -37 10 -90 0 -89 0 -90 25 -90 25 0 25
1 25 81 0 57 3 80 12 77 7 -3 10 -30 9 -81 -2 -72 -1 -77 18 -77 19 0 21 6 21
71 0 61 2 70 16 65 9 -3 22 -6 30 -6 11 0 14 -16 14 -65 0 -80 18 -87 22 -8 4
81 28 85 28 4 0 -34 4 -61 10 -61 6 0 10 22 10 48 0 52 5 63 23 56 8 -3 11
-23 9 -54 -4 -45 -2 -50 17 -50 18 0 21 6 21 49 0 42 3 48 18 45 14 -4 16 -14
14 -50 -4 -39 -2 -44 17 -44 18 0 21 6 21 40 0 32 4 40 18 40 14 0 17 -7 14
-40 -4 -35 -2 -40 17 -40 17 0 21 6 21 35 0 32 2 35 30 35 28 0 30 -3 30 -35
0 -19 5 -35 10 -35 6 0 10 14 10 31 0 27 3 30 28 27 21 -2 28 -9 30 -30 3 -25
8 -28 38 -28 30 0 34 3 34 25 0 21 5 25 28 24 33 -1 122 -16 105 -18 -7 0 -13
-8 -13 -16 0 -12 17 -15 95 -15 76 0 95 3 95 14 0 9 -13 16 -32 19 -23 3 -18
4 18 5 28 1 66 5 83 8 28 6 31 4 31 -20 0 -21 5 -26 25 -26 18 0 25 5 25 19 0
11 5 23 10 26 6 4 10 -5 10 -19 0 -21 5 -26 24 -26 19 0 25 6 28 27 2 23 8 29
36 31 30 3 32 1 32 -27 0 -21 5 -31 15 -31 10 0 15 11 15 35 0 31 3 35 25 35
22 0 25 -4 25 -35 0 -24 5 -35 15 -35 11 0 15 11 15 40 0 33 3 40 20 40 17 0
20 -7 20 -40 0 -30 4 -40 16 -40 13 0 15 9 12 45 -2 35 0 45 12 45 12 0 14
-10 12 -45 -4 -40 -2 -45 17 -45 19 0 21 6 21 50 0 28 5 50 10 50 6 0 10 -22
10 -50 0 -43 3 -50 20 -50 18 0 20 7 20 60 0 47 3 60 15 60 12 0 15 -13 15
-60 0 -36 4 -60 11 -60 7 0 10 23 7 65 -2 47 0 65 10 65 8 0 12 -20 12 -65 0
-53 3 -65 16 -65 13 0 15 11 12 70 -2 51 0 70 10 70 8 0 12 -21 12 -70 0 -56
3 -70 15 -70 12 0 15 15 15 74 0 41 5 78 10 81 6 4 10 -23 10 -74 0 -47 4 -81
10 -81 6 0 10 35 10 85 0 68 3 85 15 85 11 0 15 -19 18 -87 l3 -88 2 93 c3
121 22 123 22 2 0 -122 18 -116 23 8 l3 97 2 -97 c3 -131 22 -130 22 1 0 98 4
111 38 111 4 0 6 -47 4 -105 l-3 -105 1115 0 1116 0 0 26 c0 23 -3 26 -30 22
-20 -3 -30 0 -30 9 0 8 12 13 30 13 21 0 30 5 30 16 0 12 -9 15 -36 12 -32 -2
-37 1 -50 31 -17 40 -11 51 14 28 24 -22 32 -21 32 2 0 11 9 23 20 26 23 7 26
25 8 44 -10 11 -10 14 0 18 6 3 12 16 12 29 0 14 -5 23 -12 22 -8 -2 -14 9
-16 24 -2 20 1 28 12 28 11 0 16 9 16 26 0 21 -4 25 -20 21 -11 -3 -20 0 -20
6 0 7 -3 22 -6 35 -5 19 -2 22 20 22 22 0 26 4 26 30 0 27 -3 30 -30 30 -28 0
-30 2 -30 40 0 38 2 40 30 40 29 0 30 2 30 46 l0 46 -34 -4 c-38 -4 -46 7 -46
65 0 25 3 27 40 27 l40 0 0 40 0 40 -44 0 c-41 0 -44 2 -50 31 -8 43 -2 49 50
49 43 0 44 1 44 31 0 30 0 30 -51 28 -54 -3 -60 1 -73 53 l-6 28 65 0 c52 0
65 3 65 16 0 13 -11 15 -63 13 -68 -2 -87 3 -87 27 0 11 18 14 78 16 l77 2
-80 5 c-60 5 -80 10 -80 20 0 11 16 14 78 12 63 -2 77 0 77 13 0 12 -17 16
-87 18 -74 3 -88 6 -91 21 -3 15 6 17 87 17 54 0 91 4 91 10 0 6 -38 10 -94
10 -92 0 -94 0 -98 25 l-5 25 98 0 c81 0 99 3 99 15 0 12 -18 15 -99 15 -96 0
-111 5 -111 36 0 2 47 4 105 4 87 0 105 3 105 15 0 12 -19 15 -110 15 -91 0
-110 3 -110 15 0 8 5 15 10 15 6 0 10 11 10 25 0 19 -5 25 -17 23 -10 -2 -19
7 -24 24 -6 25 -5 28 17 28 15 0 24 6 24 15 0 9 -9 15 -25 15 -25 0 -25 2 -25
78 0 42 -3 87 -6 99 -6 20 -3 23 25 23 17 0 31 5 31 11 0 6 -12 9 -27 7 -15
-2 -28 2 -30 10 -3 8 6 12 26 12 21 0 31 5 31 15 0 10 -10 15 -30 15 -33 0
-42 15 -55 84 l-7 36 46 0 c25 0 46 5 46 10 0 6 -22 10 -49 10 -43 0 -61 10
-61 33 0 1 25 0 55 -1 44 -3 55 -1 55 12 0 11 -14 16 -57 18 -46 2 -59 7 -61
21 -3 15 5 17 57 17 50 0 61 3 61 16 0 14 -10 16 -65 12 -71 -4 -68 -7 -81 65
l-6 37 76 0 c60 0 76 3 76 15 0 11 -18 15 -82 17 -66 2 -83 6 -83 18 0 12 17
16 83 18 66 2 82 6 82 18 0 14 -14 15 -90 12 -90 -3 -91 -3 -96 22 -3 14 -10
37 -14 53 l-9 27 105 0 c67 0 104 4 104 11 0 7 -35 9 -105 7 -58 -2 -106 0
-107 5 -6 30 0 32 107 38 l110 6 -114 0 c-108 1 -130 6 -131 33 0 3 54 4 120
2 115 -3 120 -2 120 17 0 20 -6 21 -119 21 -86 0 -121 -3 -124 -12 -3 -10 -9
-10 -23 -2 -14 8 -18 22 -17 55 0 32 -1 35 -4 12 -10 -71 -33 -11 -24 62 1 11
2 35 2 53 l-1 32 155 0 155 0 0 40 0 41 -160 -3 c-168 -3 -170 -3 -170 43 0
18 9 19 165 19 103 0 165 4 165 10 0 6 -63 10 -170 10 -97 0 -170 4 -170 9 0
5 -3 16 -6 25 -5 14 13 16 170 16 152 0 176 2 176 15 0 14 -24 16 -177 14
-155 -1 -178 1 -181 15 -3 14 18 16 180 18 l183 2 -185 6 c-102 3 -181 7 -177
8 5 1 1 9 -7 18 -9 8 -16 22 -16 30 0 12 32 14 190 14 125 0 190 4 190 10 0 7
-64 10 -190 10 -104 -1 -194 1 -200 5 -30 19 19 25 196 25 168 0 194 2 194 15
0 14 -26 16 -202 14 l-203 -1 -17 44 c-9 23 -17 46 -17 51 -1 4 98 7 219 7
140 0 220 4 220 10 0 6 -82 10 -225 10 -206 0 -226 2 -231 18 -10 28 -34 80
-84 182 -49 101 -56 114 -107 194 -18 28 -33 59 -33 68 0 10 -6 18 -12 18 -7
0 -26 21 -43 48 -16 26 -56 77 -88 115 -32 37 -59 76 -60 87 -1 11 -6 19 -12
17 -6 -1 -30 16 -53 38 -33 30 -42 47 -43 75 -1 23 -3 27 -6 13 -2 -13 -9 -23
-14 -23 -6 0 -7 9 -4 20 4 11 2 20 -4 20 -6 0 -11 -5 -11 -12 0 -6 -9 -1 -19
11 -11 13 -17 29 -14 37 3 8 1 14 -5 14 -6 0 -12 -4 -14 -10 -1 -5 -18 2 -35
16 -24 18 -33 34 -33 55 0 29 -8 34 -50 31 -23 -1 -157 102 -137 106 15 3 17
25 17 243 l0 239 -50 0 -50 0 0 -215 c0 -118 -3 -215 -6 -215 -3 0 -19 8 -35
17 l-29 17 0 198 c0 169 -2 198 -15 198 -13 0 -15 -27 -15 -186 0 -144 -3
-185 -12 -182 -10 4 -14 52 -16 186 -2 174 -3 182 -22 182 -19 0 -20 -7 -20
-166 0 -128 -3 -165 -12 -162 -10 4 -14 48 -16 166 -2 137 -5 162 -18 162 -13
0 -15 -21 -12 -150 2 -83 0 -150 -4 -150 -5 0 -8 68 -8 150 0 145 -1 150 -21
150 -19 0 -20 -4 -17 -140 2 -90 -1 -139 -7 -137 -6 2 -11 61 -13 140 -3 175
-22 185 -22 12 0 -77 -4 -125 -10 -125 -6 0 -10 48 -10 125 0 104 -2 125 -15
125 -12 0 -15 -20 -15 -116 0 -88 -3 -115 -13 -112 -8 3 -14 40 -18 119 l-5
114 -2 -107 c-1 -60 -5 -108 -9 -108 -5 0 -7 47 -5 105 3 90 1 105 -12 105
-14 0 -16 -16 -16 -100 l0 -101 -30 16 c-30 15 -30 16 -30 100 0 79 -1 85 -21
85 -19 0 -20 -5 -17 -78 3 -71 1 -78 -14 -74 -15 4 -18 16 -18 78 l0 74 -30 0
c-29 0 -29 -1 -33 -62 l-3 -63 -2 63 c-2 59 -3 62 -28 62 -24 0 -25 -2 -23
-52 2 -30 -1 -52 -6 -51 -6 2 -11 25 -13 53 -3 48 -4 50 -33 50 -27 0 -29 -2
-29 -40 0 -22 -4 -40 -10 -40 -5 0 -10 18 -10 40 0 29 -4 40 -15 40 -11 0 -15
-11 -15 -36 0 -44 -19 -36 -21 9 -2 30 -2 31 -6 5 -6 -38 -43 -40 -43 -3 0 14
-4 25 -10 25 -5 0 -10 -9 -10 -20 0 -11 -6 -20 -14 -20 -9 0 -12 7 -9 20 4 16
0 20 -21 20 -16 0 -26 -5 -26 -15 0 -8 -4 -15 -10 -15 -5 0 -7 7 -4 15 4 8 1
15 -5 15 -6 0 -11 -4 -11 -10 0 -13 -37 -13 -45 0 -4 6 -11 8 -16 5 -17 -11
-49 6 -49 26 0 12 -7 19 -20 19 -11 0 -20 -7 -20 -15 0 -8 -9 -15 -20 -15 -13
0 -18 5 -14 15 4 8 2 15 -4 15 -5 0 -12 -6 -15 -13 -3 -8 -20 -11 -52 -9 -26
3 -42 7 -36 11 6 4 -130 7 -303 7 -173 0 -313 -3 -310 -8 3 -4 -9 -8 -25 -8
-17 0 -31 5 -31 10 0 6 -9 10 -21 10 -14 0 -19 -5 -16 -14 3 -8 -2 -16 -15
-19 -14 -4 -22 0 -25 14 -4 12 -14 19 -30 19 -20 0 -24 -4 -20 -19 3 -12 -1
-22 -10 -25 -22 -9 -23 -8 -23 19 0 35 -28 33 -32 -2 -2 -20 -9 -29 -25 -31
-20 -3 -23 1 -23 27 0 17 -5 31 -11 31 -7 0 -10 -14 -7 -35 3 -24 0 -35 -9
-35 -8 0 -13 13 -13 35 0 29 -4 35 -21 35 -19 0 -21 -5 -17 -40 2 -28 0 -40
-9 -40 -8 0 -13 14 -13 40 0 30 -4 40 -16 40 -13 0 -15 -9 -12 -45 3 -37 0
-45 -14 -45 -13 0 -18 11 -21 48 l-3 47 -2 -52 c-2 -67 -22 -70 -22 -3 0 69
-18 63 -22 -7 -4 -81 -28 -85 -28 -4 0 37 -4 61 -11 61 -7 0 -10 -23 -7 -65 2
-53 0 -65 -12 -65 -12 0 -14 12 -12 65 3 42 0 65 -7 65 -7 0 -11 -26 -11 -70
0 -40 -4 -70 -10 -70 -6 0 -10 30 -10 70 0 40 -4 70 -10 70 -6 0 -10 -32 -10
-75 0 -63 -3 -76 -19 -85 -36 -19 -40 -12 -44 78 l-3 87 -2 -92 c-1 -52 -6
-93 -12 -93 -5 0 -11 42 -13 93 l-3 92 -2 -95 -2 -96 -30 -11 -30 -11 0 104
c0 85 -3 104 -15 104 -12 0 -15 -22 -18 -112 l-3 -113 -2 113 c-3 152 -21 145
-25 -10 l-3 -123 -2 123 c-2 103 -4 122 -18 122 -13 0 -15 -18 -13 -127 1 -84
-2 -128 -10 -131 -7 -2 -11 40 -14 130 l-3 133 -2 -137 c-1 -84 -6 -138 -12
-138 -6 0 -10 52 -10 135 0 83 -4 135 -10 135 -6 0 -10 -55 -10 -144 0 -119
-3 -145 -15 -150 -13 -5 -15 15 -15 144 0 127 -2 150 -15 150 -13 0 -15 -24
-15 -160 0 -88 -3 -160 -7 -160 -5 0 -7 72 -5 160 3 141 1 160 -13 160 -14 0
-16 -20 -14 -167 0 -113 -3 -169 -10 -171 -8 -3 -11 48 -11 167 0 145 -2 171
-15 171 -13 0 -15 -27 -15 -185 0 -158 -2 -185 -15 -185 -13 0 -15 27 -15 185
l0 185 -115 0 -115 0 0 -269 c0 -149 -3 -272 -7 -274 -5 -2 -20 -7 -35 -11
l-28 -6 0 280 c0 242 -2 280 -15 280 -13 0 -15 -38 -15 -284 l0 -285 -22 -7
c-13 -5 -26 -7 -30 -6 -5 1 -8 -2 -8 -8 0 -5 -4 -10 -10 -10 -6 0 -10 107 -10
300 0 193 -4 300 -10 300 -6 0 -10 -109 -10 -308z m439 -98 c27 -6 31 -10 31
-40 0 -19 -4 -34 -10 -34 -5 0 -10 -16 -10 -36 0 -31 -3 -35 -22 -32 -22 3
-23 8 -22 73 1 39 0 60 -3 47 -4 -20 -9 -22 -39 -16 l-34 6 0 -51 c0 -44 -3
-51 -20 -51 -18 0 -20 7 -20 54 0 30 -3 61 -6 70 -5 14 4 16 59 16 35 0 79 -3
96 -6z m81 -49 c0 -24 5 -35 15 -35 10 0 15 10 15 29 0 29 1 30 30 20 26 -10
30 -16 30 -50 0 -21 5 -39 10 -39 6 0 10 16 10 35 0 38 0 38 24 29 11 -4 16
-18 15 -48 l-2 -41 -6 40 c-6 38 -7 36 -15 -32 -4 -40 -9 -73 -11 -73 -24 0
-35 17 -37 59 -1 43 -2 44 -5 9 -5 -42 -5 -42 -47 -27 -29 10 -31 14 -27 51 2
31 0 39 -10 36 -8 -3 -14 -19 -14 -36 0 -22 -5 -32 -15 -32 -12 0 -15 9 -12
40 3 26 9 40 18 40 9 0 14 11 14 30 0 17 5 30 10 30 6 0 10 -16 10 -35z m201
-50 c0 -6 -3 -45 -7 -87 -6 -72 -8 -76 -25 -65 -24 15 -28 97 -4 97 11 0 15
11 15 36 0 21 4 34 11 32 6 -2 10 -8 10 -13z m31 -42 c-5 -59 -10 -63 -11 -10
-1 26 3 47 7 47 4 0 6 -17 4 -37z m58 -39 c0 -28 -4 -43 -10 -39 -5 3 -10 26
-10 51 0 28 4 43 10 39 6 -3 10 -26 10 -51z m1103 49 c-10 -3 -13 -38 -13
-123 0 -122 6 -139 44 -124 12 5 15 -15 18 -120 l3 -126 -52 0 -52 0 -3 250
-3 250 35 -1 c19 0 29 -3 23 -6z m-183 -134 c0 -121 1 -131 18 -124 9 4 32 9
50 12 l33 6 -3 -129 -3 -129 -107 -3 -108 -3 0 -84 c0 -70 -3 -85 -16 -85 -13
0 -15 14 -14 83 1 45 -1 89 -4 97 -3 8 -7 47 -9 85 -2 39 -4 -8 -5 -102 -1
-95 -5 -173 -9 -173 -5 0 -17 -3 -28 -6 -19 -5 -20 -1 -17 160 2 111 -1 166
-8 166 -6 0 -10 -58 -10 -170 0 -93 -3 -170 -7 -170 -5 0 -8 75 -9 168 0 92
-2 242 -5 335 -4 154 -3 167 14 167 15 0 17 -14 17 -160 0 -100 4 -160 10
-160 6 0 10 -62 10 -167 0 -114 3 -164 10 -157 7 7 10 122 8 332 -3 341 -4
332 43 332 18 0 19 -9 19 -150 0 -136 2 -150 18 -150 41 1 43 11 40 158 -2 88
1 144 7 146 6 3 22 5 38 5 l27 1 0 -131z m378 -14 c3 -138 7 -154 40 -155 9 0
12 36 12 145 0 119 3 145 14 145 40 0 41 -5 38 -162 -2 -96 1 -155 7 -161 7
-7 11 -73 11 -174 0 -142 -2 -163 -16 -163 -13 0 -15 12 -12 80 2 59 0 80 -9
80 -9 0 -13 -22 -13 -76 0 -56 -3 -75 -12 -72 -8 3 -14 26 -16 56 -2 29 -5 52
-7 52 -23 0 -35 -17 -35 -51 0 -26 -5 -39 -13 -39 -9 0 -12 10 -9 30 2 17 0
30 -6 30 -6 0 -12 -12 -14 -27 -2 -23 -7 -28 -27 -25 -34 3 -38 10 -15 27 17
13 17 14 2 15 -15 0 -18 9 -18 45 0 27 -5 48 -12 50 -10 4 -12 37 -10 130 l3
125 25 -6 24 -6 0 127 0 126 33 -3 32 -3 3 -140z m184 -46 c-2 -131 -6 -159
-17 -159 -13 0 -15 -27 -15 -165 0 -103 -4 -165 -10 -165 -10 0 -15 642 -5
652 3 3 15 3 28 1 22 -4 22 -6 19 -164z m-1377 93 c-3 -7 -5 -18 -5 -23 0 -5
-11 -9 -25 -9 -23 0 -25 4 -25 45 l0 46 30 -23 c18 -13 28 -28 25 -36z m515
-110 c0 -96 -4 -172 -10 -178 -5 -5 -11 -88 -12 -183 l-3 -174 -25 -9 c-20 -7
-23 -7 -12 3 8 9 12 59 12 176 0 137 -2 163 -15 163 -12 0 -15 -30 -17 -187
-3 -172 -5 -188 -20 -187 -10 1 -16 -2 -13 -6 2 -4 -4 -15 -15 -25 -19 -18
-20 -17 -20 8 0 17 -5 27 -15 27 -11 0 -15 -11 -15 -41 0 -32 -7 -49 -35 -82
-19 -22 -43 -58 -53 -79 l-17 -37 -177 -1 c-130 0 -178 3 -178 12 0 6 8 29 18
50 14 32 21 37 40 33 13 -3 21 -2 18 3 -3 5 6 24 20 43 18 25 23 41 19 64 -8
37 -32 92 -56 127 -38 53 -25 58 166 58 141 0 175 3 185 15 11 13 -9 15 -169
15 l-181 0 0 60 0 60 218 0 c206 0 219 1 235 20 19 23 22 37 7 42 -8 3 -17
345 -8 352 1 2 18 6 36 9 l32 7 0 -170 c0 -154 7 -199 25 -170 4 6 6 87 5 180
-1 147 1 170 15 170 13 0 15 -23 15 -168z m930 3 c0 -158 -1 -165 -20 -165
-19 0 -20 7 -20 165 0 158 1 165 20 165 19 0 20 -7 20 -165z m88 145 c9 0 12
-43 12 -180 0 -113 4 -180 10 -180 6 0 10 65 10 176 0 136 3 175 13 172 9 -4
13 -54 15 -196 1 -117 6 -192 12 -192 6 0 10 71 10 185 0 102 3 185 8 185 4 0
17 -3 29 -6 22 -6 23 -9 25 -203 2 -150 6 -195 16 -193 6 1 12 -2 12 -8 0 -5
5 -10 10 -10 6 0 10 72 10 195 0 201 1 206 41 185 18 -10 19 -23 19 -213 l0
-203 30 -22 c16 -12 32 -22 35 -22 3 0 4 95 3 211 -3 206 -3 210 17 205 11 -3
23 -6 28 -6 4 0 7 -99 7 -219 0 -136 4 -222 10 -226 7 -4 10 69 10 210 0 169
3 216 13 213 9 -4 13 -61 17 -224 l6 -219 2 213 c3 292 21 281 24 -15 2 -170
6 -227 16 -231 9 -3 12 45 12 219 0 154 3 220 10 213 7 -7 10 -85 8 -222 -3
-183 -1 -212 12 -212 13 0 15 28 12 206 -2 149 0 205 8 202 8 -2 11 -63 10
-201 l-1 -197 231 0 230 0 0 25 c0 30 10 32 32 6 12 -14 13 -21 5 -25 -7 -2
-3 -5 8 -5 12 -1 36 -19 54 -41 26 -31 40 -40 64 -40 l32 0 3 -66 c2 -58 1
-66 -13 -60 -9 3 -24 6 -33 7 -11 0 -12 2 -4 6 6 2 12 12 12 22 0 18 -51 44
-150 76 -82 26 -83 35 -2 35 57 0 72 3 72 15 0 12 -17 15 -92 15 l-93 0 5 -85
c3 -47 4 -85 3 -85 -1 0 -9 -3 -18 -6 -15 -6 -16 3 -13 85 2 66 0 91 -9 91 -9
0 -13 -28 -15 -91 -3 -85 -5 -92 -25 -100 -23 -8 -23 -8 -23 96 0 63 -4 105
-10 105 -6 0 -10 -43 -10 -109 l0 -108 -36 -24 c-20 -13 -50 -44 -67 -69 l-32
-45 -104 0 c-75 0 -106 -4 -108 -12 -4 -10 21 -13 101 -13 l106 0 -6 -42 c-12
-95 -4 -88 -103 -88 -68 0 -92 4 -102 16 -10 12 -29 15 -92 13 -66 -3 -80 -1
-88 14 -9 16 -2 17 89 17 55 0 103 -5 108 -10 7 -7 45 -9 95 -7 l84 3 -90 4
-90 4 90 6 90 7 -92 -1 c-66 -1 -94 3 -98 12 -3 8 -34 12 -105 12 -92 0 -100
1 -100 19 0 11 -4 22 -9 25 -5 3 -12 18 -15 32 -12 45 -74 133 -140 197 -34
34 -65 69 -68 77 -2 8 -15 15 -29 15 l-24 0 -3 349 -2 348 22 -6 c13 -3 29 -6
36 -6z m-1216 -180 l-3 -150 -193 0 -194 0 -7 37 c-10 54 8 63 126 63 l98 0 3
77 c2 60 7 78 18 81 13 2 15 -14 15 -100 0 -90 2 -103 18 -106 15 -3 17 7 17
112 0 71 4 116 10 116 6 0 10 -48 10 -125 0 -77 4 -125 10 -125 6 0 10 50 10
129 0 115 2 130 18 134 48 13 47 17 44 -143z m-232 39 c0 -60 -8 -71 -30 -44
-9 11 -32 15 -80 15 -76 0 -102 17 -91 60 7 24 11 25 96 30 50 3 93 4 98 2 4
-2 7 -30 7 -63z m2060 -265 c0 -130 -2 -154 -15 -154 -13 0 -15 25 -15 166 0
147 2 165 15 154 12 -10 15 -42 15 -166z m93 98 c14 -12 17 -32 17 -115 l0
-99 31 6 c17 3 53 6 80 6 48 0 49 1 49 31 0 20 4 29 13 26 6 -2 12 -17 12 -33
1 -26 4 -29 35 -29 29 0 36 -4 38 -23 l3 -22 -168 2 -168 3 -3 143 -3 143 23
-12 c13 -6 31 -18 41 -27z m-1693 -177 c0 -110 -4 -175 -10 -175 -6 0 -10 65
-10 175 0 110 4 175 10 175 6 0 10 -65 10 -175z m1810 82 c0 -4 -4 -5 -10 -2
-6 4 -10 -14 -11 -47 -1 -64 -6 -53 -11 23 -4 53 -3 56 14 46 10 -7 18 -15 18
-20z m32 -62 c-6 -51 -22 -43 -22 11 0 37 3 44 13 36 8 -7 11 -25 9 -47z
m-3492 -29 c15 -43 13 -46 -23 -46 -22 0 -36 7 -45 21 -19 31 -7 54 28 54 24
0 32 -6 40 -29z m1849 20 c7 -8 11 -37 9 -68 -2 -41 -7 -54 -20 -56 -16 -3
-18 5 -18 67 0 71 7 84 29 57z m75 -42 c11 -29 6 -62 -10 -68 -24 -9 -24 -9
-24 39 0 32 4 45 14 45 8 0 17 -7 20 -16z m74 -42 c6 -18 -15 -14 -22 4 -4 10
-1 14 6 12 6 -2 14 -10 16 -16z m-1978 -17 c7 -19 3 -20 -69 -20 -72 0 -76 1
-79 23 -3 22 -2 23 69 20 61 -3 73 -6 79 -23z m17 -51 c2 -6 -23 -15 -64 -21
l-68 -10 72 -1 c70 -2 73 -3 79 -29 4 -16 17 -47 30 -70 l24 -43 -45 0 c-25 0
-45 -4 -45 -10 0 -5 18 -10 40 -10 46 0 51 -13 19 -54 -19 -24 -48 -38 -34
-16 3 6 -1 10 -9 10 -10 0 -16 -9 -16 -25 0 -14 -8 -29 -19 -35 -27 -14 -26
-15 -26 27 0 33 -3 38 -22 36 -20 -2 -23 2 -23 35 0 21 5 43 11 49 10 10 -8
62 -52 145 -5 10 -9 21 -9 25 0 13 153 9 157 -3z m3902 -80 c28 -6 31 -10 31
-44 0 -28 5 -39 19 -43 14 -3 20 -16 23 -46 2 -23 1 -40 -2 -39 -3 2 -27 12
-53 23 -42 18 -47 23 -47 53 0 17 -4 32 -10 32 -5 0 -10 -13 -10 -30 0 -16 -4
-30 -10 -30 -11 0 -13 37 -4 93 7 39 12 41 63 31z m215 -118 c62 -61 116 -143
130 -198 6 -27 5 -28 -29 -28 -24 0 -34 -4 -29 -11 3 -6 19 -9 35 -7 37 6 45
-5 54 -64 l7 -48 -37 0 c-29 0 -36 -3 -31 -15 4 -12 -3 -15 -32 -15 -37 0 -37
1 -39 43 -1 23 -11 64 -22 91 -12 26 -21 49 -21 51 0 2 17 6 38 8 l37 4 -41 1
c-41 2 -63 18 -79 57 -5 11 -7 24 -6 28 1 5 -2 6 -7 3 -24 -14 -40 22 -47 102
l-7 83 42 -22 c24 -13 61 -41 84 -63z m-2204 -30 c0 -14 -4 -28 -10 -31 -6 -4
-10 7 -10 24 0 17 5 31 10 31 6 0 10 -11 10 -24z m270 4 c0 -11 5 -20 10 -20
6 0 10 7 10 15 0 19 29 15 82 -11 29 -14 38 -24 40 -48 3 -29 6 -31 43 -32 35
0 44 -6 73 -43 18 -24 30 -46 27 -49 -9 -9 -150 -1 -153 9 -2 5 -37 9 -78 9
l-74 0 0 95 c0 57 4 95 10 95 6 0 10 -9 10 -20z m-313 -46 c-3 -28 -12 -50
-23 -59 -18 -13 -19 -10 -22 37 -3 51 6 68 37 68 10 0 12 -11 8 -46z m-67 22
c0 -3 -4 -8 -10 -11 -5 -3 -10 -1 -10 4 0 6 5 11 10 11 6 0 10 -2 10 -4z m-24
-106 c19 0 24 -5 24 -25 0 -14 -4 -25 -10 -25 -5 0 -10 -11 -10 -25 0 -25 -1
-25 -90 -25 -65 0 -90 3 -90 12 0 20 64 108 78 108 7 0 11 4 8 9 -3 5 9 18 27
30 l32 20 3 -39 c3 -35 6 -40 28 -40z m-496 -10 c0 -6 -33 -9 -82 -8 l-83 2
80 6 c44 3 81 7 83 8 1 1 2 -2 2 -8z m-182 -21 c2 -5 42 -9 89 -9 75 0 84 -2
73 -15 -14 -17 -160 -22 -160 -5 0 6 -35 10 -85 10 -47 0 -85 2 -85 4 0 27 14
31 88 28 42 -3 79 -8 80 -13z m1382 -59 c0 -6 -35 -9 -87 -8 l-88 2 85 6 c47
3 86 7 88 8 1 1 2 -2 2 -8z m-1230 -19 c0 -35 -13 -41 -85 -41 -41 0 -77 -4
-80 -10 -3 -5 -1 -10 4 -10 6 0 11 -18 11 -39 l0 -39 -62 -4 -61 -3 -24 54
c-13 29 -25 58 -26 63 -1 7 30 10 81 9 66 -2 83 1 88 13 5 13 22 16 80 16 41
0 74 -4 74 -9z m510 -23 c0 -5 -41 -8 -91 -8 -49 0 -88 3 -86 8 3 4 44 7 91 7
47 0 86 -3 86 -7z m738 -9 c-2 -6 -7 -10 -11 -10 -4 1 -42 2 -84 3 l-78 2 80
6 c44 3 84 7 88 8 5 1 7 -3 5 -9z m-173 -39 c3 -5 47 -10 96 -10 70 0 91 -3
95 -15 4 -8 17 -15 30 -15 l24 0 0 -145 c0 -90 -4 -145 -10 -145 -6 0 -11 -56
-12 -142 l-2 -143 -6 145 c-6 184 -24 190 -28 10 -3 -170 -22 -174 -22 -5 0
163 -19 170 -22 8 l-2 -118 -3 118 c-5 150 -23 156 -23 7 0 -67 -4 -110 -10
-110 -6 0 -10 42 -10 106 l0 105 -130 -3 -130 -3 0 183 0 182 79 0 c44 0 83
-4 86 -10z m878 -7 c4 -2 7 -15 7 -29 l0 -24 -115 0 c-93 0 -115 -3 -115 -14
0 -8 -2 -20 -5 -28 -4 -10 19 -12 120 -10 l125 4 0 -26 0 -26 -145 0 c-90 0
-145 -4 -145 -10 0 -6 57 -10 150 -10 166 0 168 -1 156 -63 l-6 -32 -174 5
c-131 4 -176 2 -185 -7 -7 -7 -15 -13 -19 -13 -5 0 -7 239 -2 299 0 5 343 -10
353 -16z m-380 -162 c1 -101 -2 -162 -8 -163 -5 -1 87 -5 205 -8 214 -5 215
-5 218 -27 l3 -23 -233 0 c-154 0 -228 -4 -218 -10 9 -6 111 -10 237 -10 l222
0 25 -54 c14 -30 30 -57 35 -61 6 -3 11 -13 11 -20 0 -12 -34 -15 -187 -18
l-188 -3 194 -1 c188 -1 194 -2 220 -25 14 -13 43 -31 64 -41 34 -15 37 -20
37 -56 0 -22 -6 -44 -15 -51 -8 -7 -15 -9 -15 -4 0 4 -5 3 -12 -4 -22 -22 -28
-12 -30 56 l-2 67 -3 -67 -4 -68 -104 0 c-85 0 -105 -3 -105 -14 0 -8 5 -18
10 -21 6 -4 10 -72 10 -171 0 -139 -2 -164 -15 -164 -12 0 -15 18 -15 105 l0
106 -139 -2 c-77 0 -144 2 -150 6 -32 19 2 25 143 25 146 0 154 1 159 20 5 21
2 21 -169 18 l-175 -3 -22 45 c-12 25 -29 45 -37 45 -10 0 -16 13 -18 43 -3
34 -7 42 -23 42 -11 0 -19 -7 -19 -16 0 -13 -5 -12 -30 6 l-30 21 0 164 c0
135 -3 164 -15 169 -12 4 -15 31 -15 156 0 143 1 150 20 150 19 0 20 -7 20
-154 0 -158 2 -166 41 -166 6 0 9 63 7 164 -3 163 -3 165 19 169 13 2 25 2 28
-1 3 -3 5 -81 5 -174 0 -92 2 -168 4 -168 29 0 31 14 28 177 -2 126 0 168 10
174 7 4 14 7 15 5 2 -2 4 -76 6 -165z m-1152 131 c49 2 89 0 89 -4 0 -5 -43
-8 -95 -8 -92 0 -95 1 -94 23 1 17 2 18 6 4 4 -16 15 -18 94 -15z m2609 -36
c0 -33 -11 -42 -42 -38 -20 3 -33 0 -39 -10 -8 -14 -52 -18 -56 -5 -8 19 0 27
25 27 16 0 32 8 40 20 15 24 72 28 72 6z m-3170 -62 l0 -45 61 2 c44 2 63 -1
70 -12 20 -31 10 -39 -51 -39 -48 0 -60 -3 -60 -16 0 -13 11 -15 62 -13 l61 3
44 -84 c24 -46 52 -94 63 -105 11 -12 20 -24 20 -28 0 -4 -25 -7 -56 -7 l-57
0 29 -22 c16 -13 30 -25 32 -28 1 -3 18 -4 37 -2 28 3 35 9 36 26 0 20 1 19
21 -6 17 -22 21 -39 19 -84 -2 -44 1 -59 16 -70 30 -23 35 -16 31 45 -2 44 0
57 10 54 8 -4 12 -29 12 -79 0 -43 4 -74 10 -74 6 0 10 28 10 65 0 36 4 65 8
65 22 0 32 -29 32 -93 0 -46 5 -73 14 -83 8 -8 16 -14 18 -14 2 0 2 34 0 75
-4 64 -2 75 12 75 13 0 16 -15 18 -87 l2 -88 6 80 6 80 2 -91 c2 -71 5 -93 17
-98 13 -4 15 9 15 84 0 50 2 90 5 90 2 0 16 -5 30 -12 24 -11 25 -15 25 -100
0 -120 -19 -116 -22 5 l-1 92 -6 -105 c-4 -58 -3 -106 1 -108 5 -2 8 -17 8
-33 0 -16 5 -29 10 -29 6 0 10 -9 10 -20 0 -11 5 -20 11 -20 6 0 9 -6 6 -14
-5 -12 20 -71 48 -116 5 -8 10 -18 10 -22 0 -4 7 -15 15 -25 8 -10 27 -37 43
-61 23 -36 32 -42 61 -42 40 0 61 -22 58 -61 -1 -16 2 -29 8 -29 5 0 10 10 10
22 0 19 4 17 40 -18 22 -21 40 -47 40 -57 0 -11 5 -15 11 -11 6 3 15 0 20 -7
13 -21 11 -29 -7 -29 -15 0 -15 -2 -2 -22 23 -34 38 -34 38 1 l0 31 94 0 c125
0 136 18 14 22 l-93 3 -3 233 c-1 127 1 232 5 231 5 -1 41 -1 81 0 l72 1 0 59
0 59 28 -10 c25 -10 27 -15 27 -67 0 -43 3 -56 15 -56 10 0 16 13 18 43 2 23
7 42 12 42 29 0 150 -152 150 -188 0 -8 -33 -12 -109 -12 -106 0 -110 1 -113
23 -2 12 -4 -3 -4 -33 0 -30 2 -47 4 -38 3 14 20 17 118 20 113 3 114 3 114
-19 0 -23 -2 -23 -115 -23 l-115 0 0 -40 0 -40 115 0 c113 0 115 0 115 -22 0
-23 -2 -23 -98 -20 -80 3 -100 1 -111 -12 -12 -14 -3 -16 93 -16 58 0 106 -4
106 -9 0 -33 -11 -36 -110 -33 -66 2 -100 0 -100 -7 0 -7 34 -11 95 -11 107 0
110 -3 67 -65 l-27 -40 -78 3 c-42 2 -85 -2 -95 -7 -14 -9 -13 -10 11 -11 26
0 27 -2 27 -49 0 -28 -4 -53 -10 -56 -5 -3 -10 -22 -10 -40 0 -35 3 -38 64
-47 11 -2 33 -23 50 -47 17 -24 43 -53 58 -64 25 -19 28 -19 52 -4 41 27 46
22 46 -48 0 -37 -4 -65 -10 -65 -5 0 -10 16 -10 35 0 28 -4 35 -19 35 -11 0
-22 6 -24 13 -3 6 -3 -3 0 -21 5 -27 3 -31 -11 -26 -9 3 -16 14 -16 24 0 24
-20 37 -30 20 -12 -20 -50 6 -50 34 0 32 -28 43 -32 13 l-3 -22 -20 21 c-42
43 -65 79 -65 101 0 12 -9 27 -19 33 -27 14 -31 13 -24 -6 4 -12 2 -15 -8 -12
-9 3 -15 23 -17 61 -2 31 -4 57 -6 57 -2 0 -17 -7 -34 -16 -27 -13 -31 -19
-26 -41 6 -23 5 -24 -13 -15 -11 6 -31 25 -44 42 -13 18 -40 52 -60 77 -25 30
-35 52 -32 66 4 18 3 19 -6 7 -10 -13 -13 -13 -26 4 -8 10 -12 24 -8 29 4 6 0
8 -10 4 -20 -7 -32 10 -28 41 1 12 -3 22 -9 22 -7 0 -10 -7 -6 -15 8 -23 1
-19 -72 36 -110 84 -122 98 -115 129 4 23 1 29 -18 35 -16 5 -26 2 -34 -9 -11
-15 -14 -14 -29 8 -9 14 -16 29 -16 35 0 5 -11 12 -25 15 -16 4 -25 13 -25 26
0 11 -6 20 -14 20 -18 0 -107 112 -181 228 -5 9 -18 25 -27 36 -10 11 -20 28
-24 38 -3 10 -9 18 -13 18 -4 0 -34 35 -67 77 -32 42 -67 85 -76 95 -10 10
-18 25 -18 34 0 8 -4 13 -9 9 -15 -8 -25 16 -23 52 2 27 -1 33 -18 33 -13 0
-20 -7 -20 -20 0 -53 -59 14 -86 99 l-21 66 61 6 61 5 -65 5 c-52 3 -65 8 -68
22 -3 14 5 17 51 17 61 0 67 3 59 32 -4 18 -11 20 -63 16 l-57 -4 -4 48 -3 48
63 0 62 0 0 -46z m3150 -35 c0 -10 -38 -12 -92 -3 -60 10 -44 19 27 16 36 -2
65 -8 65 -13z m-76 -35 c4 -10 -4 -14 -29 -14 -32 0 -46 15 -30 32 10 9 54 -4
59 -18z m-2402 -24 c3 -17 2 -32 0 -35 -3 -3 -32 -5 -64 -5 -34 0 -58 -4 -58
-11 0 -6 -5 -5 -13 3 -19 19 -47 61 -47 70 0 5 40 8 89 8 l89 0 4 -30z m2412
-82 c-27 -40 -47 -75 -47 -78 1 -3 4 -17 8 -31 6 -24 4 -26 -22 -26 -15 0 -45
-2 -65 -5 -41 -5 -47 2 -23 22 8 7 15 21 15 32 0 10 7 21 15 23 46 15 51 18
28 22 -31 6 -29 23 1 23 14 0 28 5 31 10 3 6 -3 10 -14 10 -11 0 -22 3 -25 8
-8 14 19 37 44 37 18 0 24 5 22 18 -2 13 4 17 33 17 21 0 35 5 36 13 1 6 3 4
6 -5 2 -10 -17 -49 -43 -90z m-2374 -35 c0 -29 -4 -53 -10 -53 -6 0 -10 29
-10 68 0 47 3 63 10 52 5 -8 10 -39 10 -67z m-120 37 c0 -11 -4 -20 -9 -20
-13 0 -32 26 -24 33 13 14 33 6 33 -13z m42 -19 c2 -24 -1 -37 -7 -34 -9 3 -9
73 0 73 2 0 5 -17 7 -39z m132 -58 c3 -36 2 -40 -16 -35 -14 3 -16 7 -8 12 8
5 11 22 8 44 -2 20 0 32 4 28 4 -4 10 -26 12 -49z m736 -98 c0 -97 -4 -155
-10 -155 -6 0 -10 58 -10 155 0 97 4 155 10 155 6 0 10 -58 10 -155z m-226
-62 c0 -1 -13 1 -30 6 -28 7 -29 9 -32 79 -3 66 -1 72 17 72 11 0 23 6 28 13
6 8 22 -150 17 -170z m-474 136 c0 -17 -4 -28 -10 -24 -5 3 -10 17 -10 31 0
13 5 24 10 24 6 0 10 -14 10 -31z m380 -65 c0 -34 -4 -53 -10 -49 -5 3 -10 28
-10 56 0 27 5 49 10 49 6 0 10 -25 10 -56z m-46 4 c-1 -35 -20 -44 -60 -26
-28 13 -31 28 -6 28 10 0 27 7 38 15 27 20 29 19 28 -17z m1931 -50 c1 -12 -5
-18 -17 -18 -13 0 -18 -7 -18 -25 0 -28 -7 -30 -32 -11 -20 15 -24 66 -6 66 9
0 9 3 0 12 -19 19 -14 27 21 30 33 3 47 -12 52 -54z m441 -10 c-1 -19 5 -24
32 -26 27 -3 32 0 32 17 0 14 6 21 20 21 11 0 20 -6 20 -14 0 -7 3 -28 6 -45
l7 -31 -267 0 -266 0 0 36 0 36 156 -5 c146 -4 157 -3 161 14 4 15 15 19 52
19 43 0 48 -2 47 -22z m-546 -9 c0 -11 -4 -17 -10 -14 -5 3 -10 13 -10 21 0 8
5 14 10 14 6 0 10 -9 10 -21z m-570 -149 c0 -16 -4 -30 -10 -30 -5 0 -10 14
-10 30 0 17 5 30 10 30 6 0 10 -13 10 -30z m60 -12 c0 -4 -11 -8 -25 -8 -14 0
-25 5 -25 10 0 6 5 10 10 10 6 0 10 8 10 18 1 15 2 15 15 -2 8 -11 15 -23 15
-28z m-1759 2 c15 0 6 -123 -8 -128 -10 -3 -13 14 -13 61 0 36 -3 67 -7 70 -5
2 -2 2 5 0 8 -1 18 -3 23 -3z m51 -64 c-2 -25 -8 -46 -13 -46 -10 0 -12 83 -3
93 14 14 19 -3 16 -47z m82 28 c24 -9 19 -21 -16 -38 -40 -20 -38 -21 -38 14
0 31 17 38 54 24z m250 -69 c-4 -8 -1 -15 5 -15 6 0 11 5 11 10 0 6 5 10 10
10 6 0 10 -13 10 -30 0 -27 -3 -30 -30 -30 -28 0 -30 3 -30 35 0 24 5 35 15
35 9 0 12 -6 9 -15z m76 -51 c0 -40 -2 -44 -15 -30 -8 8 -15 28 -15 45 0 21 5
31 15 31 11 0 15 -12 15 -46z m963 -113 c1 -72 -1 -131 -5 -131 -5 0 -8 62 -8
137 0 75 2 134 5 131 3 -3 7 -65 8 -137z m62 129 c3 -5 17 -10 31 -10 24 0 24
-1 24 -87 l0 -88 -35 -24 c-20 -13 -37 -22 -40 -20 -3 4 -8 200 -6 232 1 10
19 9 26 -3z m165 -58 c0 -34 3 -43 10 -32 5 8 10 27 10 43 0 20 5 27 20 27 15
0 20 -7 20 -25 0 -23 -41 -59 -107 -94 -23 -12 -23 -11 -23 58 0 68 0 70 28
73 39 5 42 2 42 -50z m110 34 c0 -3 -4 -8 -10 -11 -5 -3 -10 -1 -10 4 0 6 5
11 10 11 6 0 10 -2 10 -4z m-420 -86 c0 -5 -4 -10 -9 -10 -5 0 -10 -47 -9
-106 0 -70 -4 -110 -12 -118 -9 -8 -14 -8 -17 2 -6 17 -61 15 -79 -3 -14 -13
-10 -15 30 -15 34 0 46 -4 46 -15 0 -11 -12 -15 -45 -15 -25 0 -45 -4 -45 -10
0 -5 -18 -10 -40 -10 l-40 0 0 65 0 65 64 0 c42 0 67 5 75 14 18 21 -1 28 -67
25 -68 -3 -82 3 -82 35 0 13 -7 40 -15 59 -8 20 -15 39 -15 42 0 3 59 5 130 5
80 0 130 -4 130 -10z m-65 -310 c3 -5 3 -20 0 -33 -5 -19 -11 -23 -35 -19 -19
3 -35 -3 -49 -17 -23 -23 -81 -29 -81 -8 1 42 13 57 46 57 22 0 37 6 40 15 7
17 69 21 79 5z m-2052 -21 c12 -6 34 -23 50 -37 23 -22 27 -34 27 -82 0 -34 6
-64 15 -76 8 -10 15 -23 15 -27 0 -4 -39 -6 -87 -5 -81 3 -88 4 -85 23 1 11 7
63 12 115 5 52 9 96 10 98 1 6 23 1 43 -9z m1952 -106 c-3 -10 -9 -30 -12 -45
-5 -25 -10 -28 -45 -28 -39 0 -40 0 -33 33 10 46 23 57 62 57 29 0 34 -3 28
-17z m-1765 -120 c0 -76 3 -93 15 -93 12 0 15 16 15 81 l0 80 30 -17 c16 -10
30 -27 32 -38 2 -14 10 -21 24 -21 30 0 66 -35 60 -58 -5 -20 22 -37 33 -19 6
10 42 -19 159 -128 24 -22 48 -40 53 -40 5 0 9 -47 9 -105 0 -63 4 -105 10
-105 6 0 10 40 10 100 0 66 4 100 11 100 7 0 10 -32 7 -100 -1 -55 -2 -100 0
-100 2 0 10 7 18 15 12 11 40 15 114 15 54 0 105 3 114 6 23 9 32 -23 13 -44
-14 -15 -15 -24 -5 -57 7 -22 20 -46 30 -53 16 -11 18 -30 18 -148 0 -103 -3
-134 -13 -134 -7 0 -18 5 -24 11 -26 26 -33 -4 -33 -144 l0 -142 -47 3 -48 4
3 162 3 162 -28 14 c-15 8 -31 16 -35 18 -5 2 -8 -75 -8 -172 l0 -176 -27 0
-28 0 0 187 c0 187 0 188 -22 191 l-23 3 0 -185 c0 -158 -2 -186 -15 -186 -12
0 -15 32 -17 202 -2 150 -6 202 -15 206 -10 3 -13 -41 -13 -198 0 -157 -3
-201 -12 -198 -10 4 -14 57 -16 210 -2 167 -5 208 -17 218 -8 7 -15 9 -15 4
-1 -5 0 -100 0 -211 1 -176 -1 -203 -15 -203 -13 0 -15 29 -15 219 l0 219 -28
11 c-19 8 -107 11 -284 9 -250 -3 -257 -2 -262 17 -16 58 -28 55 238 55 154 0
247 4 251 10 3 6 3 19 0 30 -6 19 -16 20 -256 20 -144 0 -249 4 -249 9 0 5 -3
16 -6 25 -5 14 21 16 233 18 152 2 237 7 235 13 -1 6 -91 11 -240 12 -205 2
-237 4 -240 17 -3 14 22 16 212 16 130 0 217 4 221 10 3 5 -3 20 -14 32 -12
12 -21 24 -21 27 0 3 -90 5 -201 3 -189 -3 -200 -2 -197 15 3 16 20 18 188 23
l185 6 -182 2 c-103 1 -183 6 -183 11 0 34 9 36 175 33 130 -2 165 0 165 10 0
10 -34 12 -161 10 l-161 -3 4 23 c3 23 5 23 146 26 87 1 142 6 142 13 0 5 -7
21 -16 34 -16 24 -20 25 -133 25 -65 0 -120 2 -123 5 -3 3 -3 17 0 30 4 25 6
25 103 25 54 0 101 -4 104 -10 3 -5 11 -10 17 -10 6 0 9 28 7 79 -4 78 -4 78
18 68 21 -10 23 -16 23 -104z m1735 22 c6 -2 -11 -4 -37 -4 -27 -1 -48 3 -48
7 0 7 62 5 85 -3z m-515 -34 c0 -25 -32 -61 -55 -61 -3 0 -5 20 -5 45 0 43 1
45 30 45 26 0 30 -3 30 -29z m40 20 c0 -5 -7 -14 -15 -21 -13 -10 -15 -9 -15
9 0 12 6 21 15 21 8 0 15 -4 15 -9z m480 -21 c0 -18 7 -20 55 -20 55 0 55 0
55 -31 l0 -30 -65 2 c-36 1 -68 -1 -72 -4 -3 -4 24 -7 60 -7 37 0 67 -4 67 -8
0 -4 -10 -22 -22 -39 -13 -16 -36 -58 -52 -92 l-30 -61 -83 0 c-65 0 -85 3
-89 15 -8 19 -24 20 -24 1 0 -20 23 -26 106 -26 41 0 74 -3 74 -7 -1 -19 -48
-88 -58 -85 -7 1 -12 -6 -12 -16 0 -21 -36 -59 -41 -44 -2 5 -15 13 -28 17
-21 6 -23 5 -18 -15 5 -19 2 -21 -16 -16 -12 3 -25 6 -29 6 -14 0 -9 145 5
159 10 11 9 12 -7 4 -16 -9 -19 -22 -19 -84 l0 -74 -6 69 c-8 89 -31 104 -31
21 0 -48 -2 -56 -17 -53 -16 3 -18 16 -18 91 l0 87 41 40 c23 22 46 40 53 40
6 0 11 5 11 12 0 6 12 23 28 37 29 27 41 46 68 99 15 29 20 32 65 32 42 0 49
-3 49 -20z m-723 -107 c-3 -10 -5 -2 -5 17 0 19 2 27 5 18 2 -10 2 -26 0 -35z
m-461 -223 c13 0 15 11 12 55 -1 30 -2 55 -1 55 20 0 28 -16 25 -50 -3 -25 0
-40 7 -40 6 0 11 16 11 36 0 19 4 33 8 30 5 -3 7 -19 4 -36 -2 -18 0 -30 7
-30 6 0 11 11 11 25 0 36 14 31 54 -19 67 -81 47 -108 -81 -103 l-88 3 93 2
c50 1 92 5 92 10 0 4 -41 7 -92 7 l-91 0 2 74 c2 54 -1 71 -10 66 -8 -5 -10
-32 -7 -87 3 -54 1 -77 -6 -75 -6 2 -12 37 -14 83 -3 74 -1 80 20 89 22 10 23
8 26 -42 2 -40 7 -53 18 -53z m302 -348 c4 -77 22 -83 22 -6 0 37 4 53 11 48
6 -3 9 -19 5 -35 -3 -16 -3 -29 1 -29 12 0 42 43 36 53 -3 5 0 8 8 5 8 -3 19
-15 25 -27 6 -12 22 -34 34 -48 20 -23 22 -35 21 -120 -3 -121 17 -126 22 -5
2 48 3 5 3 -95 l-1 -183 -40 0 -40 0 3 105 c3 98 2 105 -16 105 -10 0 -22 3
-26 8 -4 4 -11 7 -14 8 -4 0 -20 6 -37 13 -16 6 -36 14 -42 16 -10 3 -13 39
-13 130 0 115 2 126 18 123 14 -3 18 -16 20 -66z m-588 -172 c0 -180 -2 -210
-15 -210 -13 0 -15 30 -15 210 0 180 2 210 15 210 13 0 15 -30 15 -210z m1830
201 c0 -5 3 -22 6 -39 4 -21 2 -32 -7 -35 -8 -2 -6 -3 3 -2 9 2 19 -3 22 -11
4 -10 -4 -14 -29 -14 -19 0 -35 -4 -35 -10 0 -5 18 -10 40 -10 29 0 40 -4 40
-15 0 -11 -11 -15 -40 -15 -22 0 -40 -4 -40 -10 0 -5 20 -10 45 -10 35 0 45
-4 45 -16 0 -14 -8 -16 -52 -10 -29 3 -67 6 -85 6 -40 0 -61 30 -38 54 22 22
81 100 94 125 12 21 31 29 31 12z m-1880 -206 c0 -123 -4 -195 -10 -195 -6 0
-10 66 -10 179 0 161 4 211 16 211 2 0 4 -88 4 -195z m-50 -5 c0 -169 -1 -180
-17 -171 -10 6 -30 12 -45 16 l-28 5 0 140 c0 87 -4 140 -10 140 -6 0 -10 -52
-10 -135 0 -74 -3 -135 -7 -134 -5 0 -23 6 -42 13 l-34 12 0 99 -1 100 -3 -92
c-2 -51 -7 -93 -11 -93 -4 0 -16 3 -27 6 -18 5 -20 12 -17 89 l3 85 -30 0 -31
0 0 -70 c0 -40 -4 -70 -10 -70 -6 0 -10 28 -10 65 0 37 -4 65 -10 65 -5 0 -10
-23 -10 -51 0 -42 -4 -55 -24 -70 -13 -10 -26 -32 -29 -49 -6 -28 -9 -30 -51
-30 -25 0 -48 5 -51 10 -3 6 -19 10 -36 10 -16 0 -29 5 -29 13 0 36 25 91 54
121 19 18 37 43 41 55 6 21 11 22 139 20 83 -1 140 2 152 9 15 9 -16 11 -128
12 -155 0 -154 0 -142 45 5 19 12 20 230 17 l224 -3 0 -179z m920 20 c0 -53
-4 -90 -10 -90 -6 0 -10 37 -10 90 0 53 4 90 10 90 6 0 10 -37 10 -90z m78 -4
c2 -63 0 -80 -13 -90 -14 -10 -16 -27 -13 -94 3 -79 2 -82 -19 -82 -22 0 -23
3 -23 90 0 73 3 90 15 90 12 0 15 16 15 86 0 76 2 85 18 82 14 -3 17 -16 20
-82z m82 -11 c0 -58 3 -75 14 -75 21 0 27 -147 7 -155 -8 -3 -18 -2 -22 2 -13
14 -23 303 -10 303 7 0 11 -26 11 -75z m108 51 c2 -3 1 -63 -3 -135 -8 -138
-25 -180 -25 -61 0 60 -2 70 -17 70 -16 0 -18 10 -18 71 l0 70 29 -5 c16 -4
31 -8 34 -10z m50 -93 c-5 -43 -8 -97 -6 -120 2 -33 0 -43 -12 -43 -13 0 -14
16 -6 120 6 80 13 120 21 120 8 0 9 -20 3 -77z m66 67 c23 -8 26 -15 26 -55 0
-25 5 -45 10 -45 6 0 10 18 10 40 0 23 5 40 11 40 8 0 9 -25 4 -82 -8 -89 -10
-95 -40 -100 -18 -3 -20 3 -23 50 -4 72 -22 66 -22 -8 0 -47 -3 -60 -15 -60
-11 0 -15 11 -15 38 0 73 13 192 21 192 4 0 19 -4 33 -10z m476 1 c0 -11 -40
-41 -54 -41 -5 0 1 11 14 25 24 26 40 32 40 16z m128 -38 c7 -7 31 -13 53 -13
28 0 39 -4 39 -15 0 -11 -11 -15 -41 -15 -22 0 -38 -4 -34 -9 3 -5 -7 -12 -22
-14 -16 -2 5 -2 45 1 62 4 72 3 72 -12 0 -12 -10 -16 -41 -16 -36 0 -40 -2
-34 -20 6 -17 2 -20 -30 -20 -29 0 -37 5 -46 26 -5 15 -8 29 -5 31 3 3 -4 21
-15 40 -11 19 -17 38 -15 42 7 11 60 7 74 -6z m-487 -3 c10 -6 19 -20 19 -30
0 -11 5 -20 10 -20 6 0 10 -16 10 -35 0 -44 -17 -46 -23 -2 -4 31 -4 31 -5 -5
-1 -21 -6 -38 -11 -38 -6 0 -12 17 -14 38 l-4 37 -1 -42 c-1 -25 -7 -43 -13
-43 -8 0 -10 16 -5 53 3 28 6 62 6 75 0 25 3 26 31 12z m99 -55 c0 -8 5 -15
10 -15 6 0 10 5 10 10 0 6 17 10 38 9 l37 0 -35 -16 c-61 -28 -98 -43 -104
-43 -13 0 -5 34 12 51 21 22 32 23 32 4z m-470 -90 c0 -69 -3 -85 -15 -85 -12
0 -15 16 -15 85 0 69 3 85 15 85 12 0 15 -16 15 -85z m980 -169 l0 -173 -26 5
c-14 2 -35 0 -47 -6 -50 -24 -57 -23 -57 6 0 24 4 28 28 27 24 0 27 4 30 40 2
22 1 59 -3 83 -5 33 -10 42 -26 42 -10 0 -19 -6 -20 -12 -2 -24 -27 67 -28
100 -1 31 0 32 39 32 22 0 40 4 40 9 0 6 15 12 33 14 17 2 33 5 35 5 1 1 2
-76 2 -172z m-2524 150 c73 7 74 7 73 -17 0 -13 -3 -18 -6 -11 -2 7 -22 12
-44 12 -35 0 -39 -3 -39 -24 0 -43 10 -56 45 -56 24 0 35 5 38 18 7 27 8 -42
1 -77 -6 -28 -10 -31 -45 -31 -32 0 -39 -4 -39 -19 0 -14 -9 -20 -35 -23 l-35
-4 1 126 c0 69 3 119 6 112 4 -10 23 -11 79 -6z m-1756 -286 c0 -127 -4 -200
-10 -200 -6 0 -10 73 -10 200 0 127 4 200 10 200 6 0 10 -73 10 -200z m2918
193 c-10 -2 -28 -2 -40 0 -13 2 -5 4 17 4 22 1 32 -1 23 -4z m-2854 -19 c14
-5 16 -30 16 -170 l0 -164 215 0 c118 0 215 -2 215 -4 0 -2 3 -11 6 -20 6 -14
-20 -16 -240 -16 l-246 0 0 190 c0 109 4 190 9 190 5 0 16 -3 25 -6z m376 -24
c0 -11 -16 -27 -32 -33 -14 -5 -18 -1 -18 18 0 20 5 24 25 23 14 -1 25 -5 25
-8z m-280 -17 c12 -3 14 -23 12 -115 -3 -116 1 -144 19 -132 6 3 76 7 155 8
114 1 145 -2 149 -13 3 -8 4 -15 3 -17 -2 -1 -90 -4 -196 -6 l-192 -3 0 149
c0 137 1 148 18 141 9 -4 24 -9 32 -12z m215 -44 c-6 -19 -4 -21 19 -17 19 4
29 0 36 -13 15 -27 13 -29 -29 -29 -22 0 -43 -4 -46 -10 -4 -6 13 -10 44 -10
28 0 51 -1 51 -2 0 -2 7 -24 15 -50 l14 -48 -114 0 -115 0 0 90 c0 53 4 90 10
90 6 0 10 -34 10 -81 0 -60 3 -80 13 -77 7 3 14 31 17 74 5 76 21 103 58 104
19 0 22 -4 17 -21z m3825 -173 c0 -7 -7 -19 -15 -26 -26 -22 -16 -30 35 -30
l50 0 0 -44 c0 -24 -3 -56 -6 -72 l-5 -29 -98 3 c-98 3 -98 3 -93 28 2 13 8
21 12 19 18 -11 40 41 40 96 0 30 3 59 7 62 13 13 73 7 73 -7z m-121 -83 c-1
-62 -6 -56 -11 15 -2 23 0 42 4 42 5 0 7 -26 7 -57z m-72 -105 c-2 -29 -3 -8
-3 47 0 55 1 79 3 53 2 -26 2 -71 0 -100z m-30 -25 c-2 -32 -3 -8 -3 52 0 61
1 87 3 58 2 -29 2 -78 0 -110z m-1090 -49 c-3 -3 -12 -4 -19 -1 -8 3 -5 6 6 6
11 1 17 -2 13 -5z"/>
<path d="M1848 4605 c-3 -14 -1 -25 3 -25 5 0 9 11 9 25 0 14 -2 25 -4 25 -2
0 -6 -11 -8 -25z"/>
<path d="M3164 4180 c0 -69 1 -97 3 -62 2 34 2 90 0 125 -2 34 -3 6 -3 -63z"/>
<path d="M3300 4020 c0 -6 30 -10 70 -10 40 0 70 4 70 10 0 6 -30 10 -70 10
-40 0 -70 -4 -70 -10z"/>
<path d="M4394 4080 c0 -63 1 -89 3 -57 2 31 2 83 0 115 -2 31 -3 5 -3 -58z"/>
<path d="M1089 3771 c7 -5 10 -14 7 -20 -5 -7 4 -11 23 -11 17 0 31 5 31 10 0
6 -5 10 -11 10 -5 0 -7 5 -4 10 4 6 -7 10 -27 10 -23 0 -29 -3 -19 -9z"/>
<path d="M5150 3676 c0 -20 5 -36 10 -36 6 0 10 13 10 29 0 17 -4 33 -10 36
-6 4 -10 -8 -10 -29z"/>
<path d="M5190 3626 c0 -9 30 -14 35 -6 4 6 -3 10 -14 10 -12 0 -21 -2 -21 -4z"/>
<path d="M5325 3370 c-3 -5 -16 -10 -27 -10 -12 0 -19 -2 -17 -5 8 -8 109 7
109 16 0 12 -57 11 -65 -1z"/>
<path d="M3398 3573 c-3 -38 -4 -38 -53 -44 l-50 -6 63 0 62 0 0 38 c0 50 -18
60 -22 12z"/>
<path d="M3306 3592 c-13 -12 -5 -22 19 -22 14 0 25 4 25 9 0 10 -36 21 -44
13z"/>
<path d="M2836 3541 c-4 -7 -5 -15 -2 -18 9 -9 19 4 14 18 -4 11 -6 11 -12 0z"/>
<path d="M3375 3259 l-80 -5 87 -2 c58 -1 88 -6 91 -14 4 -8 6 -9 6 -2 2 23
-26 29 -104 23z"/>
<path d="M3520 3174 c0 -13 18 -39 24 -34 2 3 -2 14 -10 24 -8 11 -14 16 -14
10z"/>
<path d="M3570 3096 c0 -8 4 -17 9 -20 5 -4 7 3 4 14 -6 23 -13 26 -13 6z"/>
<path d="M3383 3033 c48 -2 125 -2 170 0 45 1 6 3 -88 3 -93 0 -130 -2 -82 -3z"/>
<path d="M2203 2993 c15 -2 37 -2 50 0 12 2 0 4 -28 4 -27 0 -38 -2 -22 -4z"/>
<path d="M2683 2650 c0 -36 2 -50 4 -32 2 17 2 47 0 65 -2 17 -4 3 -4 -33z"/>
<path d="M3483 2400 c0 -30 2 -43 4 -27 2 15 2 39 0 55 -2 15 -4 2 -4 -28z"/>
<path d="M3343 2283 c26 -2 67 -2 90 0 23 2 2 3 -48 3 -49 0 -68 -1 -42 -3z"/>
<path d="M3343 2063 c26 -2 68 -2 95 0 26 2 4 3 -48 3 -52 0 -74 -1 -47 -3z"/>
<path d="M3500 1914 c59 -8 140 -8 140 -1 0 4 -37 6 -82 6 -46 -1 -72 -3 -58
-5z"/>
<path d="M4103 2303 c26 -2 67 -2 90 0 23 2 2 3 -48 3 -49 0 -68 -1 -42 -3z"/>
<path d="M2134 2015 c8 -8 17 -15 20 -15 3 0 6 7 6 15 0 9 -9 15 -21 15 -18 0
-19 -2 -5 -15z"/>
<path d="M3795 1570 c-3 -5 -1 -10 4 -10 6 0 11 5 11 10 0 6 -2 10 -4 10 -3 0
-8 -4 -11 -10z"/>
<path d="M3821 1556 c8 -8 88 -10 95 -3 4 4 -17 7 -46 7 -29 0 -51 -2 -49 -4z"/>
<path d="M2480 951 c0 -96 4 -162 10 -166 7 -4 10 52 10 159 0 104 -4 166 -10
166 -6 0 -10 -60 -10 -159z"/>
<path d="M2068 1003 c18 -2 45 -2 60 0 15 2 0 4 -33 4 -33 0 -45 -2 -27 -4z"/>
<path d="M1978 883 c12 -2 30 -2 40 0 9 3 -1 5 -23 4 -22 0 -30 -2 -17 -4z"/>
<path d="M3803 920 c0 -25 2 -35 4 -22 2 12 2 32 0 45 -2 12 -4 2 -4 -23z"/>
<path d="M4423 723 c9 -2 23 -2 30 0 6 3 -1 5 -18 5 -16 0 -22 -2 -12 -5z"/>
<path d="M312 483 c-1 -95 1 -173 6 -173 4 0 6 53 4 117 -4 211 -8 231 -10 56z"/>
<path d="M5330 4150 c0 -7 152 -10 435 -10 283 0 435 3 435 10 0 7 -152 10
-435 10 -283 0 -435 -3 -435 -10z"/>
<path d="M902 3625 c0 -16 2 -22 5 -12 2 9 2 23 0 30 -3 6 -5 -1 -5 -18z"/>
<path d="M723 3463 c9 -2 23 -2 30 0 6 3 -1 5 -18 5 -16 0 -22 -2 -12 -5z"/>
<path d="M5883 3373 c59 -2 155 -2 215 0 59 1 10 3 -108 3 -118 0 -167 -2
-107 -3z"/>
<path d="M278 3283 c46 -2 118 -2 160 0 42 1 5 3 -83 3 -88 0 -123 -2 -77 -3z"/>
<path d="M298 3093 c57 -2 147 -2 200 0 53 1 7 3 -103 3 -110 0 -154 -2 -97
-3z"/>
<path d="M278 2913 c46 -2 118 -2 160 0 42 1 5 3 -83 3 -88 0 -123 -2 -77 -3z"/>
<path d="M5910 2820 c0 -6 55 -10 145 -10 90 0 145 4 145 10 0 6 -55 10 -145
10 -90 0 -145 -4 -145 -10z"/>
<path d="M6020 2480 c0 -6 37 -10 90 -10 53 0 90 4 90 10 0 6 -37 10 -90 10
-53 0 -90 -4 -90 -10z"/>
<path d="M6070 2270 c0 -6 28 -10 65 -10 37 0 65 4 65 10 0 6 -28 10 -65 10
-37 0 -65 -4 -65 -10z"/>
<path d="M223 2143 c15 -2 37 -2 50 0 12 2 0 4 -28 4 -27 0 -38 -2 -22 -4z"/>
</g>
</svg>
